<svg id="Layer_1" data-name="Layer 1" xmlns="http://www.w3.org/2000/svg" viewBox="0 0 768 734.41"><defs><style>.cls-1{fill:#2b3a1d;}</style></defs><path class="cls-1" d="M355.15,393.29H325.27V408h29.88Z"/><path class="cls-1" d="M300.12,458.48h151V236.82h-151ZM419.29,270l-6.66,7a56.26,56.26,0,0,0-76.33-.21l-7.07-6.55C351.69,246.92,393.79,244.71,419.29,270ZM350.2,291.5c-2.12-2.25-4.37-4.66-6.62-7.06,15.54-16.07,46.77-16,61.35.07l-6.43,7C382.53,279.28,366.58,279.12,350.2,291.5Zm40.33,7.16L384.22,306c-6.56-4.42-13-4.59-19.81,0-2.06-2.38-4.14-4.8-6.37-7.37C366.86,290.67,382.13,290.69,390.53,298.66Zm-70.15,84.39c1.45-.07,2.91,0,4.75,0V365.29c0-6.08,1.38-7.48,7.33-7.49,3.79,0,7.57-.07,11.35,0,1.76.05,2.56-.38,2.9-2.31,1-6,2.3-11.95,3.56-17.91.93-4.4,3.32-5.83,7.56-4.42q36.92,12.24,73.79,24.53c3.12,1,4.57,2.94,4.56,6.28-.05,24.49,0,49,0,73.48,0,4.29-1.84,6.1-6.18,6.1q-49.36,0-98.71,0c-4.31,0-6.09-1.83-6.11-6.17,0-6.2,0-12.39,0-19.06-1.67,0-3.19.06-4.71,0-3.36-.15-5.32-2-5.35-5.33q-.12-12.3,0-24.6C315.1,385.05,317,383.21,320.38,383.05Z"/><path class="cls-1" d="M359.08,383c4.7,0,6.4,1.75,6.41,6.51,0,6.2,0,12.4,0,18.61,0,9.86-.34,10.2-10.31,10.2H335.45v15H425.9V368.12H335.37V383C343.38,383,351.23,383,359.08,383ZM406,413.54h9.76v9.7H406Z"/><path class="cls-1" d="M512.93,131.74H255.07a87,87,0,0,0-87,87V476.64a87,87,0,0,0,87,87H512.93a87,87,0,0,0,87-87V218.77A87,87,0,0,0,512.93,131.74Zm-51.55,345c0,14.15-8.17,22.36-22.25,22.36H312.06c-14.1,0-22.26-8.19-22.26-22.35V218.51c0-13.92,8.24-22.19,22.09-22.2H439.28c13.9,0,22.1,8.24,22.1,22.19q0,64.63,0,129.28Q461.38,412.25,461.38,476.74Z"/><path class="cls-1" d="M398.24,357.21c-12.83-4.29-25.67-8.57-39-13l-2.71,13.45h41.57C398.16,357.51,398.2,357.36,398.24,357.21Z"/><path class="cls-1" d="M439.17,206.41H312.1c-.84,0-1.69,0-2.53,0-4.54.26-8.59,3.15-9.23,7.62-.58,4.06-.12,8.27-.12,12.4H451.29v-7.93C451.28,210.16,447.53,206.41,439.17,206.41Zm-78.87,14.9h-9.81v-9.68h9.81Zm40.27,0H370.69v-9.7h29.88Z"/><path class="cls-1" d="M299.9,469c0,2.9,0,5.42,0,7.94,0,8.35,3.75,12.1,12.11,12.1H439.08c.84,0,1.68,0,2.52,0,4.53-.26,8.6-3.18,9.24-7.63.57-4.05.12-8.26.12-12.39Zm90.58,14.78H360.6V474h29.88Z"/></svg>